<svg xmlns="http://www.w3.org/2000/svg" width="512" height="512" viewBox="0 0 60 60"><g xmlns="http://www.w3.org/2000/svg" fill="none"><path d="M25.017 34.983c-5.536-5.536-6.786-11.072-7.068-13.29a1.988 1.988 0 01.571-1.664L23 15.551a2 2 0 00.282-2.475L16.149 2a2 2 0 00-2.591-.729L2.107 6.664a1.989 1.989 0 00-1.1 1.987c.6 5.7 3.085 19.712 16.855 33.483s27.78 16.255 33.483 16.855a1.989 1.989 0 001.987-1.1l5.393-11.451A2 2 0 0058 43.851L46.924 36.72a2 2 0 00-2.475.28l-4.478 4.48c-.436.439-1.05.65-1.664.571-2.218-.282-7.754-1.532-13.29-7.068z" fill="#5ab71b" data-original="#e8edfc"/><path d="M58 43.851L46.924 36.72a2 2 0 00-2.475.28l-.034.034L55 43.851a2 2 0 01.729 2.591l-5.393 11.451a2 2 0 01-.837.865c.687.1 1.307.174 1.85.231a1.989 1.989 0 001.987-1.1l5.393-11.451A2 2 0 0058 43.851z" fill="#fafcca" data-original="#cad9fc"/><path d="M47 32a2 2 0 01-2-2c-.01-8.28-6.72-14.99-15-15a2 2 0 110-4c10.489.012 18.988 8.511 19 19a2 2 0 01-2 2z" fill="#c5ed00" data-original="#a4c2f7"/><path d="M57 32a2 2 0 01-2-2C54.985 16.2 43.8 5.015 30 5a2 2 0 110-4c16.009.018 28.982 12.991 29 29a2 2 0 01-2 2z" fill="#c5ed00" data-original="#a4c2f7"/><path d="M30 1a1.983 1.983 0 00-.614.106C44.416 2.363 55.98 14.918 56 30c-.002.483-.18.949-.5 1.31A1.992 1.992 0 0059 30C58.982 13.991 46.009 1.018 30 1z" fill="#35a924" data-original="#7facfa"/><path d="M51.349 58.989c.405.043.813-.041 1.169-.24C28.374 55.232 6.562 32.882 4.011 8.651a1.989 1.989 0 011.1-1.987l10.715-5.048a2 2 0 00-2.268-.345L2.107 6.664a1.989 1.989 0 00-1.1 1.987c2.619 24.842 25.479 47.718 50.342 50.338z" fill="#fff" data-original="#ffffff"/><path d="M3.532 16.235l-1.932.531a49.809 49.809 0 01-1.524-8.01l1.989-.21a47.7 47.7 0 001.467 7.689z" fill="#fff" data-original="#ffffff"/><g fill="#3f9703"><path d="M1.678 13.608a1 1 0 01-.01-2h.01a1 1 0 010 2z" data-original="#428dff"/><path d="M1.176 9.646a1 1 0 00.889-1.1.978.978 0 01.528-.978l11.472-5.4a1 1 0 011.3.376l7.123 11.065a.994.994 0 01-.14 1.237l-4.478 4.478a2.98 2.98 0 00-.857 2.5c.286 2.245 1.574 8.092 7.354 13.87s11.625 7.067 13.87 7.353a2.987 2.987 0 002.5-.856l4.479-4.478a.99.99 0 011.225-.148L57.53 44.7a1 1 0 01.354 1.316L52.5 57.445a.971.971 0 01-.988.55c-8.317-.876-20.773-4.461-32.88-16.568a57.772 57.772 0 01-15.1-25.191 1.011 1.011 0 00-1.218-.7.99.99 0 00-.71 1.233 59.773 59.773 0 0015.615 26.072C29.74 55.362 42.666 59.074 51.3 59.984a3.024 3.024 0 003-1.665l5.382-11.43A2.986 2.986 0 0058.6 43.01l-11.087-7.138a2.984 2.984 0 00-3.713.428l-4.479 4.478a.994.994 0 01-.83.286c-2.042-.26-7.367-1.44-12.709-6.783S19.26 23.608 19 21.567a.989.989 0 01.287-.831l4.478-4.478a2.991 2.991 0 00.415-3.723L17.057 1.47a2.982 2.982 0 00-3.865-1.1L1.72 5.769A3.006 3.006 0 00.076 8.756a1 1 0 001.1.89z" data-original="#428dff"/><path d="M30 16c7.729.008 13.992 6.271 14 14a3 3 0 006 0c-.013-11.04-8.96-19.987-20-20a3 3 0 000 6zm0-4c9.936.012 17.988 8.064 18 18a1 1 0 01-2 0c-.01-8.832-7.168-15.99-16-16a1 1 0 010-2z" data-original="#428dff"/><path d="M30 6c13.248.015 23.985 10.752 24 24a3 3 0 006 0C59.981 13.44 46.56.019 30 0a3 3 0 000 6zm0-4c15.457.018 27.982 12.543 28 28a1 1 0 01-2 0C55.983 15.647 44.353 4.017 30 4a1 1 0 010-2z" data-original="#428dff"/></g></g></svg>